<svg xmlns="http://www.w3.org/2000/svg" width="900" height="540">
<style>text{font-family:Arial,sans-serif} .axis{stroke:#111;stroke-width:2} .grid{stroke:#ddd;stroke-width:1} .data{fill:none;stroke:#1f77b4;stroke-width:2} .fit{fill:none;stroke:#d62728;stroke-width:2;stroke-dasharray:6 4}</style>
<text x="450.0" y="35" text-anchor="middle" font-size="22">Areal Displacement vs Target Vertices</text>
<line class="axis" x1="90" y1="460" x2="860" y2="460"/>
<line class="axis" x1="90" y1="70" x2="90" y2="460"/>
<polyline class="data" points="90.00,70.00 145.00,286.11 200.00,361.60 255.00,400.44 310.00,418.74 365.00,429.81 420.00,438.30 475.00,443.18 530.00,447.44 585.00,450.43 640.00,452.34 695.00,454.26 750.00,456.17 805.00,458.09 860.00,460.00"/>
<polyline class="fit" points="90.00,137.87 93.87,150.38 97.74,162.06 101.61,173.01 105.48,183.28 109.35,192.93 113.22,202.02 117.09,210.61 120.95,218.71 124.82,226.39 128.69,233.67 132.56,240.57 136.43,247.14 140.30,253.39 144.17,259.34 148.04,265.02 151.91,270.45 155.78,275.63 159.65,280.60 163.52,285.35 167.39,289.91 171.26,294.28 175.13,298.48 178.99,302.51 182.86,306.39 186.73,310.13 190.60,313.73 194.47,317.20 198.34,320.54 202.21,323.77 206.08,326.89 209.95,329.91 213.82,332.82 217.69,335.64 221.56,338.37 225.43,341.01 229.30,343.57 233.17,346.06 237.04,348.47 240.90,350.80 244.77,353.07 248.64,355.27 252.51,357.41 256.38,359.49 260.25,361.52 264.12,363.48 267.99,365.40 271.86,367.26 275.73,369.08 279.60,370.85 283.47,372.57 287.34,374.25 291.21,375.89 295.08,377.49 298.94,379.05 302.81,380.57 306.68,382.06 310.55,383.51 314.42,384.92 318.29,386.31 322.16,387.66 326.03,388.99 329.90,390.28 333.77,391.55 337.64,392.78 341.51,394.00 345.38,395.18 349.25,396.34 353.12,397.48 356.98,398.60 360.85,399.69 364.72,400.76 368.59,401.80 372.46,402.83 376.33,403.84 380.20,404.83 384.07,405.80 387.94,406.75 391.81,407.68 395.68,408.60 399.55,409.49 403.42,410.38 407.29,411.24 411.16,412.09 415.03,412.93 418.89,413.75 422.76,414.56 426.63,415.35 430.50,416.13 434.37,416.89 438.24,417.64 442.11,418.38 445.98,419.11 449.85,419.83 453.72,420.53 457.59,421.22 461.46,421.91 465.33,422.58 469.20,423.24 473.07,423.89 476.93,424.53 480.80,425.16 484.67,425.78 488.54,426.39 492.41,426.99 496.28,427.58 500.15,428.16 504.02,428.74 507.89,429.30 511.76,429.86 515.63,430.41 519.50,430.96 523.37,431.49 527.24,432.02 531.11,432.54 534.97,433.05 538.84,433.55 542.71,434.05 546.58,434.54 550.45,435.03 554.32,435.51 558.19,435.98 562.06,436.44 565.93,436.90 569.80,437.36 573.67,437.80 577.54,438.25 581.41,438.68 585.28,439.11 589.15,439.54 593.02,439.96 596.88,440.37 600.75,440.78 604.62,441.19 608.49,441.58 612.36,441.98 616.23,442.37 620.10,442.75 623.97,443.13 627.84,443.51 631.71,443.88 635.58,444.25 639.45,444.61 643.32,444.97 647.19,445.32 651.06,445.67 654.92,446.02 658.79,446.36 662.66,446.70 666.53,447.03 670.40,447.36 674.27,447.69 678.14,448.01 682.01,448.33 685.88,448.65 689.75,448.96 693.62,449.27 697.49,449.58 701.36,449.88 705.23,450.18 709.10,450.48 712.96,450.77 716.83,451.06 720.70,451.35 724.57,451.63 728.44,451.91 732.31,452.19 736.18,452.46 740.05,452.74 743.92,453.01 747.79,453.27 751.66,453.54 755.53,453.80 759.40,454.06 763.27,454.32 767.14,454.57 771.01,454.82 774.87,455.07 778.74,455.32 782.61,455.56 786.48,455.80 790.35,456.04 794.22,456.28 798.09,456.52 801.96,456.75 805.83,456.98 809.70,457.21 813.57,457.44 817.44,457.66 821.31,457.88 825.18,458.10 829.05,458.32 832.91,458.54 836.78,458.75 840.65,458.97 844.52,459.18 848.39,459.38 852.26,459.59 856.13,459.80 860.00,460.00"/>
<text x="450.0" y="520" text-anchor="middle" font-size="16">Target vertices</text>
<text x="25" y="270.0" text-anchor="middle" transform="rotate(-90,25,270.0)" font-size="16">Areal displacement</text>
<rect x="560" y="76" width="292" height="42" fill="white" opacity="0.75"/>
<text x="850" y="92" text-anchor="end" font-size="14" fill="#d62728">Best fit: a*(1/x-1/xmax)</text>
<text x="850" y="110" text-anchor="end" font-size="13" fill="#d62728">y=4.550e+04*(1/x-1/2048)</text>
<line class="axis" x1="90.00" y1="460" x2="90.00" y2="466"/>
<text x="90.00" y="484" text-anchor="middle" font-size="12">256</text>
<line class="axis" x1="244.00" y1="460" x2="244.00" y2="466"/>
<text x="244.00" y="484" text-anchor="middle" font-size="12">614</text>
<line class="axis" x1="398.00" y1="460" x2="398.00" y2="466"/>
<text x="398.00" y="484" text-anchor="middle" font-size="12">973</text>
<line class="axis" x1="552.00" y1="460" x2="552.00" y2="466"/>
<text x="552.00" y="484" text-anchor="middle" font-size="12">1331</text>
<line class="axis" x1="706.00" y1="460" x2="706.00" y2="466"/>
<text x="706.00" y="484" text-anchor="middle" font-size="12">1690</text>
<line class="axis" x1="860.00" y1="460" x2="860.00" y2="466"/>
<text x="860.00" y="484" text-anchor="middle" font-size="12">2048</text>
<line class="axis" x1="84" y1="460.00" x2="90" y2="460.00"/>
<text x="80" y="464.00" text-anchor="end" font-size="12">0.00e+00</text>
<line class="axis" x1="84" y1="382.00" x2="90" y2="382.00"/>
<text x="80" y="386.00" text-anchor="end" font-size="12">37.7</text>
<line class="axis" x1="84" y1="304.00" x2="90" y2="304.00"/>
<text x="80" y="308.00" text-anchor="end" font-size="12">75.3</text>
<line class="axis" x1="84" y1="226.00" x2="90" y2="226.00"/>
<text x="80" y="230.00" text-anchor="end" font-size="12">113</text>
<line class="axis" x1="84" y1="148.00" x2="90" y2="148.00"/>
<text x="80" y="152.00" text-anchor="end" font-size="12">151</text>
<line class="axis" x1="84" y1="70.00" x2="90" y2="70.00"/>
<text x="80" y="74.00" text-anchor="end" font-size="12">188</text>
</svg>