<svg xmlns="http://www.w3.org/2000/svg" width="900" height="540">
<style>text{font-family:Arial,sans-serif} .axis{stroke:#111;stroke-width:2} .grid{stroke:#ddd;stroke-width:1} .data{fill:none;stroke:#1f77b4;stroke-width:2} .fit{fill:none;stroke:#d62728;stroke-width:2;stroke-dasharray:6 4}</style>
<text x="450.0" y="35" text-anchor="middle" font-size="22">Areal Displacement vs Target Vertices</text>
<line class="axis" x1="90" y1="460" x2="860" y2="460"/>
<line class="axis" x1="90" y1="70" x2="90" y2="460"/>
<polyline class="data" points="90.00,70.00 145.00,286.11 200.00,361.60 255.00,400.44 310.00,418.74 365.00,429.81 420.00,438.30 475.00,443.18 530.00,447.44 585.00,450.43 640.00,452.34 695.00,454.26 750.00,456.17 805.00,458.09 860.00,460.00"/>
<polyline class="fit" points="90.00,66.53 93.87,93.24 97.74,117.35 101.61,139.20 105.48,159.06 109.35,177.16 113.22,193.71 117.09,208.88 120.95,222.82 124.82,235.65 128.69,247.49 132.56,258.45 136.43,268.60 140.30,278.03 144.17,286.80 148.04,294.97 151.91,302.59 155.78,309.71 159.65,316.38 163.52,322.64 167.39,328.51 171.26,334.02 175.13,339.22 178.99,344.11 182.86,348.72 186.73,353.08 190.60,357.20 194.47,361.10 198.34,364.79 202.21,368.30 206.08,371.62 209.95,374.78 213.82,377.78 217.69,380.64 221.56,383.36 225.43,385.95 229.30,388.42 233.17,390.78 237.04,393.04 240.90,395.19 244.77,397.26 248.64,399.23 252.51,401.12 256.38,402.93 260.25,404.67 264.12,406.33 267.99,407.93 271.86,409.47 275.73,410.94 279.60,412.36 283.47,413.73 287.34,415.04 291.21,416.31 295.08,417.53 298.94,418.70 302.81,419.83 306.68,420.93 310.55,421.98 314.42,423.00 318.29,423.98 322.16,424.93 326.03,425.85 329.90,426.74 333.77,427.60 337.64,428.43 341.51,429.24 345.38,430.02 349.25,430.77 353.12,431.50 356.98,432.21 360.85,432.90 364.72,433.57 368.59,434.22 372.46,434.84 376.33,435.46 380.20,436.05 384.07,436.62 387.94,437.18 391.81,437.73 395.68,438.25 399.55,438.77 403.42,439.27 407.29,439.75 411.16,440.23 415.03,440.69 418.89,441.14 422.76,441.57 426.63,442.00 430.50,442.41 434.37,442.82 438.24,443.21 442.11,443.60 445.98,443.97 449.85,444.34 453.72,444.69 457.59,445.04 461.46,445.38 465.33,445.71 469.20,446.04 473.07,446.35 476.93,446.66 480.80,446.96 484.67,447.26 488.54,447.54 492.41,447.83 496.28,448.10 500.15,448.37 504.02,448.63 507.89,448.89 511.76,449.14 515.63,449.39 519.50,449.63 523.37,449.86 527.24,450.10 531.11,450.32 534.97,450.54 538.84,450.76 542.71,450.97 546.58,451.18 550.45,451.38 554.32,451.58 558.19,451.78 562.06,451.97 565.93,452.16 569.80,452.34 573.67,452.52 577.54,452.70 581.41,452.87 585.28,453.04 589.15,453.21 593.02,453.38 596.88,453.54 600.75,453.69 604.62,453.85 608.49,454.00 612.36,454.15 616.23,454.30 620.10,454.44 623.97,454.58 627.84,454.72 631.71,454.86 635.58,454.99 639.45,455.12 643.32,455.25 647.19,455.38 651.06,455.51 654.92,455.63 658.79,455.75 662.66,455.87 666.53,455.98 670.40,456.10 674.27,456.21 678.14,456.32 682.01,456.43 685.88,456.54 689.75,456.64 693.62,456.75 697.49,456.85 701.36,456.95 705.23,457.05 709.10,457.15 712.96,457.24 716.83,457.34 720.70,457.43 724.57,457.52 728.44,457.61 732.31,457.70 736.18,457.79 740.05,457.87 743.92,457.96 747.79,458.04 751.66,458.12 755.53,458.20 759.40,458.28 763.27,458.36 767.14,458.44 771.01,458.52 774.87,458.59 778.74,458.66 782.61,458.74 786.48,458.81 790.35,458.88 794.22,458.95 798.09,459.02 801.96,459.09 805.83,459.15 809.70,459.22 813.57,459.28 817.44,459.35 821.31,459.41 825.18,459.47 829.05,459.54 832.91,459.60 836.78,459.66 840.65,459.72 844.52,459.77 848.39,459.83 852.26,459.89 856.13,459.94 860.00,460.00"/>
<text x="450.0" y="520" text-anchor="middle" font-size="16">Target vertices</text>
<text x="25" y="270.0" text-anchor="middle" transform="rotate(-90,25,270.0)" font-size="16">Areal displacement</text>
<rect x="560" y="76" width="292" height="42" fill="white" opacity="0.75"/>
<text x="850" y="92" text-anchor="end" font-size="14" fill="#d62728">Best fit: a*(1/x^2-1/xmax^2)</text>
<text x="850" y="110" text-anchor="end" font-size="13" fill="#d62728">y=1.265e+07*(1/x²-1/2048²)</text>
<line class="axis" x1="90.00" y1="460" x2="90.00" y2="466"/>
<text x="90.00" y="484" text-anchor="middle" font-size="12">256</text>
<line class="axis" x1="244.00" y1="460" x2="244.00" y2="466"/>
<text x="244.00" y="484" text-anchor="middle" font-size="12">614</text>
<line class="axis" x1="398.00" y1="460" x2="398.00" y2="466"/>
<text x="398.00" y="484" text-anchor="middle" font-size="12">973</text>
<line class="axis" x1="552.00" y1="460" x2="552.00" y2="466"/>
<text x="552.00" y="484" text-anchor="middle" font-size="12">1331</text>
<line class="axis" x1="706.00" y1="460" x2="706.00" y2="466"/>
<text x="706.00" y="484" text-anchor="middle" font-size="12">1690</text>
<line class="axis" x1="860.00" y1="460" x2="860.00" y2="466"/>
<text x="860.00" y="484" text-anchor="middle" font-size="12">2048</text>
<line class="axis" x1="84" y1="460.00" x2="90" y2="460.00"/>
<text x="80" y="464.00" text-anchor="end" font-size="12">0.00e+00</text>
<line class="axis" x1="84" y1="382.00" x2="90" y2="382.00"/>
<text x="80" y="386.00" text-anchor="end" font-size="12">37.7</text>
<line class="axis" x1="84" y1="304.00" x2="90" y2="304.00"/>
<text x="80" y="308.00" text-anchor="end" font-size="12">75.3</text>
<line class="axis" x1="84" y1="226.00" x2="90" y2="226.00"/>
<text x="80" y="230.00" text-anchor="end" font-size="12">113</text>
<line class="axis" x1="84" y1="148.00" x2="90" y2="148.00"/>
<text x="80" y="152.00" text-anchor="end" font-size="12">151</text>
<line class="axis" x1="84" y1="70.00" x2="90" y2="70.00"/>
<text x="80" y="74.00" text-anchor="end" font-size="12">188</text>
</svg>