<svg xmlns="http://www.w3.org/2000/svg" width="900" height="540">
<style>text{font-family:Arial,sans-serif} .axis{stroke:#111;stroke-width:2} .grid{stroke:#ddd;stroke-width:1} .data{fill:none;stroke:#1f77b4;stroke-width:2} .fit{fill:none;stroke:#d62728;stroke-width:2;stroke-dasharray:6 4}</style>
<text x="450.0" y="35" text-anchor="middle" font-size="22">Peak RSS vs Input Size</text>
<line class="axis" x1="90" y1="460" x2="860" y2="460"/>
<line class="axis" x1="90" y1="70" x2="90" y2="460"/>
<polyline class="data" points="90.00,460.00 91.34,460.00 92.86,460.00 94.58,460.00 96.49,460.00 98.59,460.00 100.89,460.00 103.56,460.00 106.42,460.00 109.67,460.00 113.30,460.00 117.31,460.00 121.70,460.00 126.67,460.00 132.20,460.00 138.32,460.00 145.19,460.00 152.64,460.00 161.04,122.98 170.40,125.19 180.90,117.83 192.55,123.72 205.35,116.73 219.86,110.47 235.71,128.87 253.47,129.97 273.33,117.46 295.30,114.89 319.74,104.95 347.05,102.38 377.41,93.18 411.02,96.49 448.65,106.06 490.28,103.85 536.68,104.22 588.44,97.23 645.92,89.13 709.70,85.82 780.94,83.61 860.00,70.00"/>
<polyline class="fit" points="90.00,437.95 93.87,427.34 97.74,417.95 101.61,409.43 105.48,401.58 109.35,394.27 113.22,387.38 117.09,380.87 120.95,374.67 124.82,368.74 128.69,363.05 132.56,357.57 136.43,352.28 140.30,347.17 144.17,342.21 148.04,337.39 151.91,332.71 155.78,328.14 159.65,323.69 163.52,319.34 167.39,315.09 171.26,310.92 175.13,306.85 178.99,302.85 182.86,298.93 186.73,295.08 190.60,291.30 194.47,287.59 198.34,283.93 202.21,280.33 206.08,276.79 209.95,273.30 213.82,269.86 217.69,266.47 221.56,263.13 225.43,259.83 229.30,256.58 233.17,253.36 237.04,250.19 240.90,247.05 244.77,243.95 248.64,240.89 252.51,237.86 256.38,234.87 260.25,231.90 264.12,228.97 267.99,226.07 271.86,223.20 275.73,220.35 279.60,217.54 283.47,214.75 287.34,211.99 291.21,209.25 295.08,206.54 298.94,203.85 302.81,201.18 306.68,198.54 310.55,195.92 314.42,193.32 318.29,190.74 322.16,188.18 326.03,185.65 329.90,183.13 333.77,180.63 337.64,178.15 341.51,175.69 345.38,173.25 349.25,170.82 353.12,168.42 356.98,166.03 360.85,163.65 364.72,161.29 368.59,158.95 372.46,156.62 376.33,154.31 380.20,152.02 384.07,149.73 387.94,147.47 391.81,145.21 395.68,142.97 399.55,140.75 403.42,138.53 407.29,136.33 411.16,134.15 415.03,131.97 418.89,129.81 422.76,127.66 426.63,125.52 430.50,123.40 434.37,121.28 438.24,119.18 442.11,117.09 445.98,115.01 449.85,112.94 453.72,110.88 457.59,108.83 461.46,106.79 465.33,104.77 469.20,102.75 473.07,100.74 476.93,98.74 480.80,96.76 484.67,94.78 488.54,92.81 492.41,90.85 496.28,88.90 500.15,86.96 504.02,85.02 507.89,83.10 511.76,81.18 515.63,79.28 519.50,77.38 523.37,75.49 527.24,73.61 531.11,71.73 534.97,69.87 538.84,68.01 542.71,66.16 546.58,64.32 550.45,62.48 554.32,60.65 558.19,58.83 562.06,57.02 565.93,55.21 569.80,53.42 573.67,51.62 577.54,49.84 581.41,48.06 585.28,46.29 589.15,44.53 593.02,42.77 596.88,41.02 600.75,39.28 604.62,37.54 608.49,35.81 612.36,34.08 616.23,32.36 620.10,30.65 623.97,28.94 627.84,27.24 631.71,25.55 635.58,23.86 639.45,22.18 643.32,20.50 647.19,18.83 651.06,17.16 654.92,15.50 658.79,13.85 662.66,12.20 666.53,10.56 670.40,8.92 674.27,7.28 678.14,5.66 682.01,4.04 685.88,2.42 689.75,0.81 693.62,-0.80 697.49,-2.40 701.36,-4.00 705.23,-5.59 709.10,-7.18 712.96,-8.76 716.83,-10.34 720.70,-11.91 724.57,-13.48 728.44,-15.04 732.31,-16.60 736.18,-18.15 740.05,-19.70 743.92,-21.25 747.79,-22.79 751.66,-24.32 755.53,-25.86 759.40,-27.38 763.27,-28.91 767.14,-30.42 771.01,-31.94 774.87,-33.45 778.74,-34.95 782.61,-36.46 786.48,-37.95 790.35,-39.45 794.22,-40.94 798.09,-42.42 801.96,-43.90 805.83,-45.38 809.70,-46.85 813.57,-48.32 817.44,-49.79 821.31,-51.25 825.18,-52.71 829.05,-54.16 832.91,-55.62 836.78,-57.06 840.65,-58.51 844.52,-59.95 848.39,-61.38 852.26,-62.81 856.13,-64.24 860.00,-65.67"/>
<text x="450.0" y="520" text-anchor="middle" font-size="16">Input vertices (n)</text>
<text x="25" y="270.0" text-anchor="middle" transform="rotate(-90,25,270.0)" font-size="16">Peak RSS (kB)</text>
<rect x="560" y="76" width="292" height="42" fill="white" opacity="0.75"/>
<text x="850" y="92" text-anchor="end" font-size="14" fill="#d62728">Best fit: c*sqrt(n)</text>
<text x="850" y="110" text-anchor="end" font-size="13" fill="#d62728">y=9.777e+01*f(n)+-5.304e+02</text>
<line class="axis" x1="90.00" y1="460" x2="90.00" y2="466"/>
<text x="90.00" y="484" text-anchor="middle" font-size="12">64</text>
<line class="axis" x1="244.00" y1="460" x2="244.00" y2="466"/>
<text x="244.00" y="484" text-anchor="middle" font-size="12">870</text>
<line class="axis" x1="398.00" y1="460" x2="398.00" y2="466"/>
<text x="398.00" y="484" text-anchor="middle" font-size="12">1677</text>
<line class="axis" x1="552.00" y1="460" x2="552.00" y2="466"/>
<text x="552.00" y="484" text-anchor="middle" font-size="12">2483</text>
<line class="axis" x1="706.00" y1="460" x2="706.00" y2="466"/>
<text x="706.00" y="484" text-anchor="middle" font-size="12">3290</text>
<line class="axis" x1="860.00" y1="460" x2="860.00" y2="466"/>
<text x="860.00" y="484" text-anchor="middle" font-size="12">4096</text>
<line class="axis" x1="84" y1="460.00" x2="90" y2="460.00"/>
<text x="80" y="464.00" text-anchor="end" font-size="12">12</text>
<line class="axis" x1="84" y1="382.00" x2="90" y2="382.00"/>
<text x="80" y="386.00" text-anchor="end" font-size="12">860</text>
<line class="axis" x1="84" y1="304.00" x2="90" y2="304.00"/>
<text x="80" y="308.00" text-anchor="end" font-size="12">1.71e+03</text>
<line class="axis" x1="84" y1="226.00" x2="90" y2="226.00"/>
<text x="80" y="230.00" text-anchor="end" font-size="12">2.56e+03</text>
<line class="axis" x1="84" y1="148.00" x2="90" y2="148.00"/>
<text x="80" y="152.00" text-anchor="end" font-size="12">3.4e+03</text>
<line class="axis" x1="84" y1="70.00" x2="90" y2="70.00"/>
<text x="80" y="74.00" text-anchor="end" font-size="12">4.25e+03</text>
</svg>