<svg xmlns="http://www.w3.org/2000/svg" width="900" height="540">
<style>text{font-family:Arial,sans-serif} .axis{stroke:#111;stroke-width:2} .grid{stroke:#ddd;stroke-width:1} .data{fill:none;stroke:#1f77b4;stroke-width:2} .fit{fill:none;stroke:#d62728;stroke-width:2;stroke-dasharray:6 4}</style>
<text x="450.0" y="35" text-anchor="middle" font-size="22">Peak RSS vs Input Size</text>
<line class="axis" x1="90" y1="460" x2="860" y2="460"/>
<line class="axis" x1="90" y1="70" x2="90" y2="460"/>
<polyline class="data" points="90.00,460.00 91.34,460.00 92.86,460.00 94.58,460.00 96.49,460.00 98.59,460.00 100.89,460.00 103.56,460.00 106.42,460.00 109.67,460.00 113.30,460.00 117.31,460.00 121.70,460.00 126.67,460.00 132.20,460.00 138.32,460.00 145.19,460.00 152.64,460.00 161.04,118.94 170.40,117.44 180.90,118.19 192.55,111.09 205.35,116.32 219.86,118.19 235.71,122.67 253.47,116.32 273.33,111.84 295.30,109.97 319.74,104.74 347.05,91.29 377.41,96.90 411.02,90.55 448.65,100.63 490.28,96.52 536.68,96.15 588.44,86.81 645.92,75.60 709.70,81.95 780.94,81.95 860.00,70.00"/>
<polyline class="fit" points="90.00,437.71 93.87,426.95 97.74,417.42 101.61,408.78 105.48,400.81 109.35,393.39 113.22,386.41 117.09,379.79 120.95,373.50 124.82,367.49 128.69,361.71 132.56,356.15 136.43,350.79 140.30,345.60 144.17,340.56 148.04,335.68 151.91,330.92 155.78,326.29 159.65,321.77 163.52,317.36 167.39,313.04 171.26,308.82 175.13,304.68 178.99,300.63 182.86,296.65 186.73,292.74 190.60,288.91 194.47,285.14 198.34,281.43 202.21,277.78 206.08,274.18 209.95,270.64 213.82,267.15 217.69,263.71 221.56,260.32 225.43,256.97 229.30,253.67 233.17,250.41 237.04,247.19 240.90,244.01 244.77,240.86 248.64,237.75 252.51,234.68 256.38,231.64 260.25,228.63 264.12,225.66 267.99,222.71 271.86,219.80 275.73,216.91 279.60,214.06 283.47,211.23 287.34,208.42 291.21,205.64 295.08,202.89 298.94,200.16 302.81,197.46 306.68,194.78 310.55,192.12 314.42,189.48 318.29,186.86 322.16,184.27 326.03,181.70 329.90,179.14 333.77,176.61 337.64,174.09 341.51,171.59 345.38,169.12 349.25,166.65 353.12,164.21 356.98,161.78 360.85,159.38 364.72,156.98 368.59,154.60 372.46,152.24 376.33,149.90 380.20,147.57 384.07,145.25 387.94,142.95 391.81,140.66 395.68,138.39 399.55,136.13 403.42,133.89 407.29,131.65 411.16,129.43 415.03,127.23 418.89,125.03 422.76,122.85 426.63,120.68 430.50,118.53 434.37,116.38 438.24,114.25 442.11,112.13 445.98,110.02 449.85,107.92 453.72,105.83 457.59,103.75 461.46,101.68 465.33,99.62 469.20,97.58 473.07,95.54 476.93,93.51 480.80,91.49 484.67,89.49 488.54,87.49 492.41,85.50 496.28,83.52 500.15,81.55 504.02,79.59 507.89,77.64 511.76,75.69 515.63,73.76 519.50,71.83 523.37,69.91 527.24,68.00 531.11,66.10 534.97,64.21 538.84,62.32 542.71,60.45 546.58,58.58 550.45,56.71 554.32,54.86 558.19,53.01 562.06,51.17 565.93,49.34 569.80,47.52 573.67,45.70 577.54,43.89 581.41,42.08 585.28,40.29 589.15,38.50 593.02,36.71 596.88,34.94 600.75,33.17 604.62,31.40 608.49,29.65 612.36,27.90 616.23,26.15 620.10,24.41 623.97,22.68 627.84,20.96 631.71,19.24 635.58,17.52 639.45,15.82 643.32,14.11 647.19,12.42 651.06,10.73 654.92,9.04 658.79,7.36 662.66,5.69 666.53,4.02 670.40,2.36 674.27,0.70 678.14,-0.95 682.01,-2.59 685.88,-4.23 689.75,-5.87 693.62,-7.50 697.49,-9.13 701.36,-10.75 705.23,-12.36 709.10,-13.97 712.96,-15.58 716.83,-17.18 720.70,-18.77 724.57,-20.37 728.44,-21.95 732.31,-23.53 736.18,-25.11 740.05,-26.68 743.92,-28.25 747.79,-29.81 751.66,-31.37 755.53,-32.93 759.40,-34.47 763.27,-36.02 767.14,-37.56 771.01,-39.10 774.87,-40.63 778.74,-42.16 782.61,-43.68 786.48,-45.20 790.35,-46.72 794.22,-48.23 798.09,-49.74 801.96,-51.24 805.83,-52.74 809.70,-54.23 813.57,-55.73 817.44,-57.21 821.31,-58.70 825.18,-60.18 829.05,-61.65 832.91,-63.12 836.78,-64.59 840.65,-66.06 844.52,-67.52 848.39,-68.97 852.26,-70.43 856.13,-71.88 860.00,-73.32"/>
<text x="450.0" y="520" text-anchor="middle" font-size="16">Input vertices (n)</text>
<text x="25" y="270.0" text-anchor="middle" transform="rotate(-90,25,270.0)" font-size="16">Peak RSS (kB)</text>
<rect x="560" y="76" width="292" height="42" fill="white" opacity="0.75"/>
<text x="850" y="92" text-anchor="end" font-size="14" fill="#d62728">Best fit: c*sqrt(n)</text>
<text x="850" y="110" text-anchor="end" font-size="13" fill="#d62728">y=9.771e+01*f(n)+-5.311e+02</text>
<line class="axis" x1="90.00" y1="460" x2="90.00" y2="466"/>
<text x="90.00" y="484" text-anchor="middle" font-size="12">64</text>
<line class="axis" x1="244.00" y1="460" x2="244.00" y2="466"/>
<text x="244.00" y="484" text-anchor="middle" font-size="12">870</text>
<line class="axis" x1="398.00" y1="460" x2="398.00" y2="466"/>
<text x="398.00" y="484" text-anchor="middle" font-size="12">1677</text>
<line class="axis" x1="552.00" y1="460" x2="552.00" y2="466"/>
<text x="552.00" y="484" text-anchor="middle" font-size="12">2483</text>
<line class="axis" x1="706.00" y1="460" x2="706.00" y2="466"/>
<text x="706.00" y="484" text-anchor="middle" font-size="12">3290</text>
<line class="axis" x1="860.00" y1="460" x2="860.00" y2="466"/>
<text x="860.00" y="484" text-anchor="middle" font-size="12">4096</text>
<line class="axis" x1="84" y1="460.00" x2="90" y2="460.00"/>
<text x="80" y="464.00" text-anchor="end" font-size="12">12</text>
<line class="axis" x1="84" y1="382.00" x2="90" y2="382.00"/>
<text x="80" y="386.00" text-anchor="end" font-size="12">847</text>
<line class="axis" x1="84" y1="304.00" x2="90" y2="304.00"/>
<text x="80" y="308.00" text-anchor="end" font-size="12">1.68e+03</text>
<line class="axis" x1="84" y1="226.00" x2="90" y2="226.00"/>
<text x="80" y="230.00" text-anchor="end" font-size="12">2.52e+03</text>
<line class="axis" x1="84" y1="148.00" x2="90" y2="148.00"/>
<text x="80" y="152.00" text-anchor="end" font-size="12">3.35e+03</text>
<line class="axis" x1="84" y1="70.00" x2="90" y2="70.00"/>
<text x="80" y="74.00" text-anchor="end" font-size="12">4.19e+03</text>
</svg>