<svg xmlns="http://www.w3.org/2000/svg" width="900" height="540">
<style>text{font-family:Arial,sans-serif} .axis{stroke:#111;stroke-width:2} .grid{stroke:#ddd;stroke-width:1} .data{fill:none;stroke:#1f77b4;stroke-width:2} .fit{fill:none;stroke:#d62728;stroke-width:2;stroke-dasharray:6 4}</style>
<text x="450.0" y="35" text-anchor="middle" font-size="22">Peak RSS vs Input Size</text>
<line class="axis" x1="90" y1="460" x2="860" y2="460"/>
<line class="axis" x1="90" y1="70" x2="90" y2="460"/>
<polyline class="data" points="90.00,414.54 100.31,428.90 111.88,381.04 124.71,419.33 138.81,373.87 154.80,333.19 172.26,452.82 191.83,460.00 213.70,378.65 237.90,361.90 264.83,297.30 294.91,280.55 328.36,220.74 365.39,242.27 406.84,304.48 452.70,290.12 503.82,292.52 560.84,247.06 624.16,194.42 694.43,172.88 772.90,158.53 860.00,70.00"/>
<polyline class="fit" points="90.00,413.04 93.87,411.47 97.74,409.89 101.61,408.32 105.48,406.75 109.35,405.17 113.22,403.60 117.09,402.03 120.95,400.45 124.82,398.88 128.69,397.31 132.56,395.73 136.43,394.16 140.30,392.59 144.17,391.01 148.04,389.44 151.91,387.87 155.78,386.29 159.65,384.72 163.52,383.15 167.39,381.57 171.26,380.00 175.13,378.43 178.99,376.85 182.86,375.28 186.73,373.71 190.60,372.13 194.47,370.56 198.34,368.99 202.21,367.41 206.08,365.84 209.95,364.27 213.82,362.69 217.69,361.12 221.56,359.55 225.43,357.97 229.30,356.40 233.17,354.83 237.04,353.25 240.90,351.68 244.77,350.11 248.64,348.53 252.51,346.96 256.38,345.39 260.25,343.81 264.12,342.24 267.99,340.67 271.86,339.09 275.73,337.52 279.60,335.95 283.47,334.37 287.34,332.80 291.21,331.23 295.08,329.65 298.94,328.08 302.81,326.51 306.68,324.93 310.55,323.36 314.42,321.79 318.29,320.21 322.16,318.64 326.03,317.07 329.90,315.49 333.77,313.92 337.64,312.35 341.51,310.77 345.38,309.20 349.25,307.63 353.12,306.05 356.98,304.48 360.85,302.91 364.72,301.33 368.59,299.76 372.46,298.19 376.33,296.61 380.20,295.04 384.07,293.46 387.94,291.89 391.81,290.32 395.68,288.74 399.55,287.17 403.42,285.60 407.29,284.02 411.16,282.45 415.03,280.88 418.89,279.30 422.76,277.73 426.63,276.16 430.50,274.58 434.37,273.01 438.24,271.44 442.11,269.86 445.98,268.29 449.85,266.72 453.72,265.14 457.59,263.57 461.46,262.00 465.33,260.42 469.20,258.85 473.07,257.28 476.93,255.70 480.80,254.13 484.67,252.56 488.54,250.98 492.41,249.41 496.28,247.84 500.15,246.26 504.02,244.69 507.89,243.12 511.76,241.54 515.63,239.97 519.50,238.40 523.37,236.82 527.24,235.25 531.11,233.68 534.97,232.10 538.84,230.53 542.71,228.96 546.58,227.38 550.45,225.81 554.32,224.24 558.19,222.66 562.06,221.09 565.93,219.52 569.80,217.94 573.67,216.37 577.54,214.80 581.41,213.22 585.28,211.65 589.15,210.08 593.02,208.50 596.88,206.93 600.75,205.36 604.62,203.78 608.49,202.21 612.36,200.64 616.23,199.06 620.10,197.49 623.97,195.92 627.84,194.34 631.71,192.77 635.58,191.20 639.45,189.62 643.32,188.05 647.19,186.48 651.06,184.90 654.92,183.33 658.79,181.76 662.66,180.18 666.53,178.61 670.40,177.04 674.27,175.46 678.14,173.89 682.01,172.32 685.88,170.74 689.75,169.17 693.62,167.60 697.49,166.02 701.36,164.45 705.23,162.88 709.10,161.30 712.96,159.73 716.83,158.15 720.70,156.58 724.57,155.01 728.44,153.43 732.31,151.86 736.18,150.29 740.05,148.71 743.92,147.14 747.79,145.57 751.66,143.99 755.53,142.42 759.40,140.85 763.27,139.27 767.14,137.70 771.01,136.13 774.87,134.55 778.74,132.98 782.61,131.41 786.48,129.83 790.35,128.26 794.22,126.69 798.09,125.11 801.96,123.54 805.83,121.97 809.70,120.39 813.57,118.82 817.44,117.25 821.31,115.67 825.18,114.10 829.05,112.53 832.91,110.95 836.78,109.38 840.65,107.81 844.52,106.23 848.39,104.66 852.26,103.09 856.13,101.51 860.00,99.94"/>
<text x="450.0" y="520" text-anchor="middle" font-size="16">Input vertices (n)</text>
<text x="25" y="270.0" text-anchor="middle" transform="rotate(-90,25,270.0)" font-size="16">Peak RSS (kB)</text>
<rect x="560" y="76" width="292" height="42" fill="white" opacity="0.75"/>
<text x="850" y="92" text-anchor="end" font-size="14" fill="#d62728">Best fit: c*n</text>
<text x="850" y="110" text-anchor="end" font-size="13" fill="#d62728">y=1.430e-01*f(n)+3.616e+03</text>
<line class="axis" x1="90.00" y1="460" x2="90.00" y2="466"/>
<text x="90.00" y="484" text-anchor="middle" font-size="12">436</text>
<line class="axis" x1="244.00" y1="460" x2="244.00" y2="466"/>
<text x="244.00" y="484" text-anchor="middle" font-size="12">1168</text>
<line class="axis" x1="398.00" y1="460" x2="398.00" y2="466"/>
<text x="398.00" y="484" text-anchor="middle" font-size="12">1900</text>
<line class="axis" x1="552.00" y1="460" x2="552.00" y2="466"/>
<text x="552.00" y="484" text-anchor="middle" font-size="12">2632</text>
<line class="axis" x1="706.00" y1="460" x2="706.00" y2="466"/>
<text x="706.00" y="484" text-anchor="middle" font-size="12">3364</text>
<line class="axis" x1="860.00" y1="460" x2="860.00" y2="466"/>
<text x="860.00" y="484" text-anchor="middle" font-size="12">4096</text>
<line class="axis" x1="84" y1="460.00" x2="90" y2="460.00"/>
<text x="80" y="464.00" text-anchor="end" font-size="12">3.6e+03</text>
<line class="axis" x1="84" y1="382.00" x2="90" y2="382.00"/>
<text x="80" y="386.00" text-anchor="end" font-size="12">3.73e+03</text>
<line class="axis" x1="84" y1="304.00" x2="90" y2="304.00"/>
<text x="80" y="308.00" text-anchor="end" font-size="12">3.86e+03</text>
<line class="axis" x1="84" y1="226.00" x2="90" y2="226.00"/>
<text x="80" y="230.00" text-anchor="end" font-size="12">3.99e+03</text>
<line class="axis" x1="84" y1="148.00" x2="90" y2="148.00"/>
<text x="80" y="152.00" text-anchor="end" font-size="12">4.12e+03</text>
<line class="axis" x1="84" y1="70.00" x2="90" y2="70.00"/>
<text x="80" y="74.00" text-anchor="end" font-size="12">4.25e+03</text>
</svg>