<svg xmlns="http://www.w3.org/2000/svg" width="900" height="540">
<style>text{font-family:Arial,sans-serif} .axis{stroke:#111;stroke-width:2} .grid{stroke:#ddd;stroke-width:1} .data{fill:none;stroke:#1f77b4;stroke-width:2} .fit{fill:none;stroke:#d62728;stroke-width:2;stroke-dasharray:6 4}</style>
<text x="450.0" y="35" text-anchor="middle" font-size="22">Peak RSS vs Input Size</text>
<line class="axis" x1="90" y1="460" x2="860" y2="460"/>
<line class="axis" x1="90" y1="70" x2="90" y2="460"/>
<polyline class="data" points="90.00,460.00 96.11,460.00 102.22,460.00 108.33,460.00 114.44,460.00 126.67,460.00 138.89,460.00 151.11,272.47 175.56,122.67 200.00,111.84 224.44,119.68 248.89,116.70 273.33,116.32 322.22,101.01 371.11,99.14 420.00,90.17 468.89,98.76 566.67,93.16 664.44,82.33 762.22,74.48 860.00,70.00"/>
<polyline class="fit" points="90.00,284.36 93.87,284.30 97.74,284.23 101.61,284.14 105.48,284.03 109.35,283.91 113.22,283.77 117.09,283.61 120.95,283.44 124.82,283.26 128.69,283.05 132.56,282.83 136.43,282.60 140.30,282.35 144.17,282.08 148.04,281.79 151.91,281.49 155.78,281.18 159.65,280.85 163.52,280.50 167.39,280.14 171.26,279.76 175.13,279.36 178.99,278.95 182.86,278.52 186.73,278.07 190.60,277.61 194.47,277.14 198.34,276.64 202.21,276.14 206.08,275.61 209.95,275.07 213.82,274.51 217.69,273.94 221.56,273.35 225.43,272.75 229.30,272.13 233.17,271.49 237.04,270.84 240.90,270.17 244.77,269.48 248.64,268.78 252.51,268.06 256.38,267.33 260.25,266.58 264.12,265.81 267.99,265.03 271.86,264.23 275.73,263.42 279.60,262.59 283.47,261.74 287.34,260.88 291.21,260.00 295.08,259.11 298.94,258.20 302.81,257.27 306.68,256.33 310.55,255.37 314.42,254.40 318.29,253.41 322.16,252.40 326.03,251.38 329.90,250.34 333.77,249.28 337.64,248.21 341.51,247.13 345.38,246.02 349.25,244.90 353.12,243.77 356.98,242.62 360.85,241.45 364.72,240.27 368.59,239.07 372.46,237.85 376.33,236.62 380.20,235.37 384.07,234.11 387.94,232.83 391.81,231.53 395.68,230.22 399.55,228.89 403.42,227.55 407.29,226.19 411.16,224.81 415.03,223.42 418.89,222.01 422.76,220.59 426.63,219.15 430.50,217.69 434.37,216.22 438.24,214.73 442.11,213.22 445.98,211.70 449.85,210.17 453.72,208.61 457.59,207.04 461.46,205.46 465.33,203.86 469.20,202.24 473.07,200.61 476.93,198.96 480.80,197.29 484.67,195.61 488.54,193.91 492.41,192.20 496.28,190.47 500.15,188.72 504.02,186.96 507.89,185.19 511.76,183.39 515.63,181.58 519.50,179.76 523.37,177.91 527.24,176.06 531.11,174.18 534.97,172.29 538.84,170.38 542.71,168.46 546.58,166.52 550.45,164.57 554.32,162.60 558.19,160.61 562.06,158.61 565.93,156.59 569.80,154.55 573.67,152.50 577.54,150.44 581.41,148.35 585.28,146.25 589.15,144.14 593.02,142.01 596.88,139.86 600.75,137.70 604.62,135.52 608.49,133.32 612.36,131.11 616.23,128.88 620.10,126.64 623.97,124.38 627.84,122.10 631.71,119.81 635.58,117.50 639.45,115.18 643.32,112.84 647.19,110.48 651.06,108.11 654.92,105.72 658.79,103.32 662.66,100.90 666.53,98.46 670.40,96.01 674.27,93.54 678.14,91.05 682.01,88.55 685.88,86.04 689.75,83.50 693.62,80.95 697.49,78.39 701.36,75.81 705.23,73.21 709.10,70.60 712.96,67.97 716.83,65.32 720.70,62.66 724.57,59.98 728.44,57.29 732.31,54.58 736.18,51.86 740.05,49.11 743.92,46.36 747.79,43.58 751.66,40.79 755.53,37.99 759.40,35.16 763.27,32.33 767.14,29.47 771.01,26.60 774.87,23.71 778.74,20.81 782.61,17.89 786.48,14.96 790.35,12.01 794.22,9.04 798.09,6.06 801.96,3.06 805.83,0.04 809.70,-2.99 813.57,-6.03 817.44,-9.10 821.31,-12.18 825.18,-15.27 829.05,-18.38 832.91,-21.51 836.78,-24.65 840.65,-27.81 844.52,-30.99 848.39,-34.18 852.26,-37.39 856.13,-40.61 860.00,-43.85"/>
<text x="450.0" y="520" text-anchor="middle" font-size="16">Input vertices (n)</text>
<text x="25" y="270.0" text-anchor="middle" transform="rotate(-90,25,270.0)" font-size="16">Peak RSS (kB)</text>
<rect x="560" y="76" width="292" height="42" fill="white" opacity="0.75"/>
<text x="850" y="92" text-anchor="end" font-size="14" fill="#d62728">Best fit: c*n^2</text>
<text x="850" y="110" text-anchor="end" font-size="13" fill="#d62728">y=2.095e-04*f(n)+1.892e+03</text>
<line class="axis" x1="90.00" y1="460" x2="90.00" y2="466"/>
<text x="90.00" y="484" text-anchor="middle" font-size="12">64</text>
<line class="axis" x1="244.00" y1="460" x2="244.00" y2="466"/>
<text x="244.00" y="484" text-anchor="middle" font-size="12">870</text>
<line class="axis" x1="398.00" y1="460" x2="398.00" y2="466"/>
<text x="398.00" y="484" text-anchor="middle" font-size="12">1677</text>
<line class="axis" x1="552.00" y1="460" x2="552.00" y2="466"/>
<text x="552.00" y="484" text-anchor="middle" font-size="12">2483</text>
<line class="axis" x1="706.00" y1="460" x2="706.00" y2="466"/>
<text x="706.00" y="484" text-anchor="middle" font-size="12">3290</text>
<line class="axis" x1="860.00" y1="460" x2="860.00" y2="466"/>
<text x="860.00" y="484" text-anchor="middle" font-size="12">4096</text>
<line class="axis" x1="84" y1="460.00" x2="90" y2="460.00"/>
<text x="80" y="464.00" text-anchor="end" font-size="12">12</text>
<line class="axis" x1="84" y1="382.00" x2="90" y2="382.00"/>
<text x="80" y="386.00" text-anchor="end" font-size="12">847</text>
<line class="axis" x1="84" y1="304.00" x2="90" y2="304.00"/>
<text x="80" y="308.00" text-anchor="end" font-size="12">1.68e+03</text>
<line class="axis" x1="84" y1="226.00" x2="90" y2="226.00"/>
<text x="80" y="230.00" text-anchor="end" font-size="12">2.52e+03</text>
<line class="axis" x1="84" y1="148.00" x2="90" y2="148.00"/>
<text x="80" y="152.00" text-anchor="end" font-size="12">3.35e+03</text>
<line class="axis" x1="84" y1="70.00" x2="90" y2="70.00"/>
<text x="80" y="74.00" text-anchor="end" font-size="12">4.19e+03</text>
</svg>