<svg xmlns="http://www.w3.org/2000/svg" width="900" height="540">
<style>text{font-family:Arial,sans-serif} .axis{stroke:#111;stroke-width:2} .grid{stroke:#ddd;stroke-width:1} .data{fill:none;stroke:#1f77b4;stroke-width:2} .fit{fill:none;stroke:#d62728;stroke-width:2;stroke-dasharray:6 4}</style>
<text x="450.0" y="35" text-anchor="middle" font-size="22">Running Time vs Input Size</text>
<line class="axis" x1="90" y1="460" x2="860" y2="460"/>
<line class="axis" x1="90" y1="70" x2="90" y2="460"/>
<polyline class="data" points="90.00,457.87 96.11,457.74 102.22,458.19 108.33,460.00 114.44,457.40 126.67,457.47 138.89,456.25 151.11,331.63 175.56,333.01 200.00,333.02 224.44,332.30 248.89,331.84 273.33,257.67 322.22,257.46 371.11,202.22 420.00,202.81 468.89,159.79 566.67,158.80 664.44,125.69 762.22,71.19 860.00,70.00"/>
<polyline class="fit" points="90.00,328.56 93.87,328.45 97.74,328.30 101.61,328.13 105.48,327.92 109.35,327.68 113.22,327.41 117.09,327.11 120.95,326.78 124.82,326.42 128.69,326.03 132.56,325.61 136.43,325.16 140.30,324.69 144.17,324.18 148.04,323.64 151.91,323.07 155.78,322.48 159.65,321.85 163.52,321.20 167.39,320.52 171.26,319.82 175.13,319.08 178.99,318.32 182.86,317.53 186.73,316.72 190.60,315.88 194.47,315.02 198.34,314.13 202.21,313.21 206.08,312.27 209.95,311.31 213.82,310.32 217.69,309.31 221.56,308.28 225.43,307.23 229.30,306.15 233.17,305.05 237.04,303.93 240.90,302.79 244.77,301.63 248.64,300.44 252.51,299.24 256.38,298.02 260.25,296.78 264.12,295.52 267.99,294.25 271.86,292.95 275.73,291.64 279.60,290.31 283.47,288.97 287.34,287.61 291.21,286.23 295.08,284.84 298.94,283.43 302.81,282.01 306.68,280.58 310.55,279.13 314.42,277.67 318.29,276.19 322.16,274.71 326.03,273.21 329.90,271.70 333.77,270.17 337.64,268.64 341.51,267.10 345.38,265.54 349.25,263.98 353.12,262.40 356.98,260.82 360.85,259.23 364.72,257.62 368.59,256.01 372.46,254.40 376.33,252.77 380.20,251.14 384.07,249.50 387.94,247.85 391.81,246.19 395.68,244.53 399.55,242.87 403.42,241.20 407.29,239.52 411.16,237.84 415.03,236.15 418.89,234.46 422.76,232.76 426.63,231.06 430.50,229.35 434.37,227.64 438.24,225.93 442.11,224.22 445.98,222.50 449.85,220.78 453.72,219.05 457.59,217.33 461.46,215.60 465.33,213.87 469.20,212.13 473.07,210.40 476.93,208.66 480.80,206.93 484.67,205.19 488.54,203.45 492.41,201.71 496.28,199.97 500.15,198.23 504.02,196.48 507.89,194.74 511.76,193.00 515.63,191.26 519.50,189.52 523.37,187.78 527.24,186.03 531.11,184.29 534.97,182.55 538.84,180.82 542.71,179.08 546.58,177.34 550.45,175.61 554.32,173.87 558.19,172.14 562.06,170.41 565.93,168.68 569.80,166.95 573.67,165.22 577.54,163.50 581.41,161.78 585.28,160.06 589.15,158.34 593.02,156.62 596.88,154.91 600.75,153.20 604.62,151.49 608.49,149.78 612.36,148.07 616.23,146.37 620.10,144.67 623.97,142.98 627.84,141.28 631.71,139.59 635.58,137.91 639.45,136.22 643.32,134.54 647.19,132.86 651.06,131.18 654.92,129.51 658.79,127.84 662.66,126.17 666.53,124.51 670.40,122.85 674.27,121.19 678.14,119.54 682.01,117.89 685.88,116.25 689.75,114.60 693.62,112.96 697.49,111.33 701.36,109.69 705.23,108.07 709.10,106.44 712.96,104.82 716.83,103.20 720.70,101.59 724.57,99.98 728.44,98.37 732.31,96.77 736.18,95.17 740.05,93.57 743.92,91.98 747.79,90.39 751.66,88.80 755.53,87.22 759.40,85.65 763.27,84.07 767.14,82.50 771.01,80.94 774.87,79.38 778.74,77.82 782.61,76.27 786.48,74.72 790.35,73.17 794.22,71.63 798.09,70.09 801.96,68.55 805.83,67.02 809.70,65.50 813.57,63.97 817.44,62.45 821.31,60.94 825.18,59.43 829.05,57.92 832.91,56.42 836.78,54.92 840.65,53.42 844.52,51.93 848.39,50.44 852.26,48.96 856.13,47.48 860.00,46.00"/>
<text x="450.0" y="520" text-anchor="middle" font-size="16">Input vertices (n)</text>
<text x="25" y="270.0" text-anchor="middle" transform="rotate(-90,25,270.0)" font-size="16">Time (seconds)</text>
<rect x="560" y="76" width="292" height="42" fill="white" opacity="0.75"/>
<text x="850" y="92" text-anchor="end" font-size="14" fill="#d62728">Best fit: c*n^2</text>
<text x="850" y="110" text-anchor="end" font-size="13" fill="#d62728">y=8.878e-10*f(n)+4.540e-03</text>
<line class="axis" x1="90.00" y1="460" x2="90.00" y2="466"/>
<text x="90.00" y="484" text-anchor="middle" font-size="12">64</text>
<line class="axis" x1="244.00" y1="460" x2="244.00" y2="466"/>
<text x="244.00" y="484" text-anchor="middle" font-size="12">870</text>
<line class="axis" x1="398.00" y1="460" x2="398.00" y2="466"/>
<text x="398.00" y="484" text-anchor="middle" font-size="12">1677</text>
<line class="axis" x1="552.00" y1="460" x2="552.00" y2="466"/>
<text x="552.00" y="484" text-anchor="middle" font-size="12">2483</text>
<line class="axis" x1="706.00" y1="460" x2="706.00" y2="466"/>
<text x="706.00" y="484" text-anchor="middle" font-size="12">3290</text>
<line class="axis" x1="860.00" y1="460" x2="860.00" y2="466"/>
<text x="860.00" y="484" text-anchor="middle" font-size="12">4096</text>
<line class="axis" x1="84" y1="460.00" x2="90" y2="460.00"/>
<text x="80" y="464.00" text-anchor="end" font-size="12">2.31e-03</text>
<line class="axis" x1="84" y1="382.00" x2="90" y2="382.00"/>
<text x="80" y="386.00" text-anchor="end" font-size="12">3.45e-03</text>
<line class="axis" x1="84" y1="304.00" x2="90" y2="304.00"/>
<text x="80" y="308.00" text-anchor="end" font-size="12">5.16e-03</text>
<line class="axis" x1="84" y1="226.00" x2="90" y2="226.00"/>
<text x="80" y="230.00" text-anchor="end" font-size="12">7.70e-03</text>
<line class="axis" x1="84" y1="148.00" x2="90" y2="148.00"/>
<text x="80" y="152.00" text-anchor="end" font-size="12">1.15e-02</text>
<line class="axis" x1="84" y1="70.00" x2="90" y2="70.00"/>
<text x="80" y="74.00" text-anchor="end" font-size="12">1.72e-02</text>
</svg>