<svg xmlns="http://www.w3.org/2000/svg" width="900" height="540">
<style>text{font-family:Arial,sans-serif} .axis{stroke:#111;stroke-width:2} .grid{stroke:#ddd;stroke-width:1} .data{fill:none;stroke:#1f77b4;stroke-width:2} .fit{fill:none;stroke:#d62728;stroke-width:2;stroke-dasharray:6 4}</style>
<text x="450.0" y="35" text-anchor="middle" font-size="22">Running Time vs Input Size</text>
<line class="axis" x1="90" y1="460" x2="860" y2="460"/>
<line class="axis" x1="90" y1="70" x2="90" y2="460"/>
<polyline class="data" points="90.00,457.18 91.34,456.70 92.86,458.60 94.58,455.98 96.49,455.23 98.59,458.52 100.89,458.15 103.56,457.46 106.42,457.61 109.67,457.43 113.30,457.44 117.31,458.71 121.70,459.58 126.67,458.49 132.20,457.44 138.32,460.00 145.19,458.03 152.64,331.59 161.04,331.21 170.40,332.39 180.90,333.72 192.55,333.75 205.35,333.04 219.86,332.27 235.71,332.66 253.47,332.36 273.33,258.01 295.30,257.77 319.74,257.04 347.05,258.09 377.41,204.08 411.02,203.20 448.65,202.61 490.28,159.90 536.68,161.47 588.44,127.80 645.92,126.98 709.70,97.83 780.94,70.00 860.00,71.74"/>
<polyline class="fit" points="90.00,484.94 93.87,477.46 97.74,470.25 101.61,463.30 105.48,456.59 109.35,450.11 113.22,443.84 117.09,437.77 120.95,431.88 124.82,426.16 128.69,420.61 132.56,415.22 136.43,409.97 140.30,404.86 144.17,399.88 148.04,395.03 151.91,390.29 155.78,385.67 159.65,381.16 163.52,376.75 167.39,372.43 171.26,368.22 175.13,364.09 178.99,360.05 182.86,356.09 186.73,352.21 190.60,348.41 194.47,344.68 198.34,341.02 202.21,337.43 206.08,333.91 209.95,330.44 213.82,327.04 217.69,323.70 221.56,320.41 225.43,317.18 229.30,314.01 233.17,310.88 237.04,307.81 240.90,304.78 244.77,301.80 248.64,298.86 252.51,295.97 256.38,293.12 260.25,290.31 264.12,287.54 267.99,284.82 271.86,282.12 275.73,279.47 279.60,276.85 283.47,274.27 287.34,271.72 291.21,269.21 295.08,266.72 298.94,264.27 302.81,261.85 306.68,259.46 310.55,257.10 314.42,254.77 318.29,252.46 322.16,250.18 326.03,247.93 329.90,245.71 333.77,243.50 337.64,241.33 341.51,239.18 345.38,237.05 349.25,234.95 353.12,232.86 356.98,230.80 360.85,228.77 364.72,226.75 368.59,224.75 372.46,222.78 376.33,220.82 380.20,218.89 384.07,216.97 387.94,215.07 391.81,213.19 395.68,211.33 399.55,209.49 403.42,207.66 407.29,205.86 411.16,204.06 415.03,202.29 418.89,200.53 422.76,198.78 426.63,197.06 430.50,195.34 434.37,193.65 438.24,191.96 442.11,190.30 445.98,188.64 449.85,187.00 453.72,185.37 457.59,183.76 461.46,182.16 465.33,180.58 469.20,179.00 473.07,177.44 476.93,175.90 480.80,174.36 484.67,172.84 488.54,171.32 492.41,169.82 496.28,168.34 500.15,166.86 504.02,165.39 507.89,163.94 511.76,162.49 515.63,161.06 519.50,159.64 523.37,158.23 527.24,156.82 531.11,155.43 534.97,154.05 538.84,152.68 542.71,151.32 546.58,149.96 550.45,148.62 554.32,147.29 558.19,145.96 562.06,144.64 565.93,143.34 569.80,142.04 573.67,140.75 577.54,139.47 581.41,138.20 585.28,136.93 589.15,135.67 593.02,134.43 596.88,133.19 600.75,131.95 604.62,130.73 608.49,129.51 612.36,128.30 616.23,127.10 620.10,125.91 623.97,124.72 627.84,123.54 631.71,122.37 635.58,121.21 639.45,120.05 643.32,118.90 647.19,117.75 651.06,116.61 654.92,115.48 658.79,114.36 662.66,113.24 666.53,112.13 670.40,111.02 674.27,109.92 678.14,108.83 682.01,107.75 685.88,106.66 689.75,105.59 693.62,104.52 697.49,103.46 701.36,102.40 705.23,101.35 709.10,100.31 712.96,99.27 716.83,98.23 720.70,97.20 724.57,96.18 728.44,95.16 732.31,94.15 736.18,93.14 740.05,92.14 743.92,91.14 747.79,90.15 751.66,89.16 755.53,88.18 759.40,87.21 763.27,86.23 767.14,85.27 771.01,84.30 774.87,83.35 778.74,82.39 782.61,81.45 786.48,80.50 790.35,79.56 794.22,78.63 798.09,77.70 801.96,76.78 805.83,75.85 809.70,74.94 813.57,74.03 817.44,73.12 821.31,72.21 825.18,71.31 829.05,70.42 832.91,69.53 836.78,68.64 840.65,67.76 844.52,66.88 848.39,66.00 852.26,65.13 856.13,64.27 860.00,63.40"/>
<text x="450.0" y="520" text-anchor="middle" font-size="16">Input vertices (n)</text>
<text x="25" y="270.0" text-anchor="middle" transform="rotate(-90,25,270.0)" font-size="16">Time (seconds)</text>
<rect x="560" y="76" width="292" height="42" fill="white" opacity="0.75"/>
<text x="850" y="92" text-anchor="end" font-size="14" fill="#d62728">Best fit: c*n</text>
<text x="850" y="110" text-anchor="end" font-size="13" fill="#d62728">y=3.937e-06*f(n)+1.767e-03</text>
<line class="axis" x1="90.00" y1="460" x2="90.00" y2="466"/>
<text x="90.00" y="484" text-anchor="middle" font-size="12">64</text>
<line class="axis" x1="244.00" y1="460" x2="244.00" y2="466"/>
<text x="244.00" y="484" text-anchor="middle" font-size="12">870</text>
<line class="axis" x1="398.00" y1="460" x2="398.00" y2="466"/>
<text x="398.00" y="484" text-anchor="middle" font-size="12">1677</text>
<line class="axis" x1="552.00" y1="460" x2="552.00" y2="466"/>
<text x="552.00" y="484" text-anchor="middle" font-size="12">2483</text>
<line class="axis" x1="706.00" y1="460" x2="706.00" y2="466"/>
<text x="706.00" y="484" text-anchor="middle" font-size="12">3290</text>
<line class="axis" x1="860.00" y1="460" x2="860.00" y2="466"/>
<text x="860.00" y="484" text-anchor="middle" font-size="12">4096</text>
<line class="axis" x1="84" y1="460.00" x2="90" y2="460.00"/>
<text x="80" y="464.00" text-anchor="end" font-size="12">2.30e-03</text>
<line class="axis" x1="84" y1="382.00" x2="90" y2="382.00"/>
<text x="80" y="386.00" text-anchor="end" font-size="12">3.44e-03</text>
<line class="axis" x1="84" y1="304.00" x2="90" y2="304.00"/>
<text x="80" y="308.00" text-anchor="end" font-size="12">5.15e-03</text>
<line class="axis" x1="84" y1="226.00" x2="90" y2="226.00"/>
<text x="80" y="230.00" text-anchor="end" font-size="12">7.71e-03</text>
<line class="axis" x1="84" y1="148.00" x2="90" y2="148.00"/>
<text x="80" y="152.00" text-anchor="end" font-size="12">1.15e-02</text>
<line class="axis" x1="84" y1="70.00" x2="90" y2="70.00"/>
<text x="80" y="74.00" text-anchor="end" font-size="12">1.73e-02</text>
</svg>