<svg xmlns="http://www.w3.org/2000/svg" width="900" height="540">
<style>text{font-family:Arial,sans-serif} .axis{stroke:#111;stroke-width:2} .grid{stroke:#ddd;stroke-width:1} .data{fill:none;stroke:#1f77b4;stroke-width:2} .fit{fill:none;stroke:#d62728;stroke-width:2;stroke-dasharray:6 4}</style>
<text x="450.0" y="35" text-anchor="middle" font-size="22">Running Time vs Input Size</text>
<line class="axis" x1="90" y1="460" x2="860" y2="460"/>
<line class="axis" x1="90" y1="70" x2="90" y2="460"/>
<polyline class="data" points="90.00,458.33 91.34,459.03 92.86,458.44 94.58,458.43 96.49,457.97 98.59,458.35 100.89,458.19 103.56,460.00 106.42,458.35 109.67,459.31 113.30,458.43 117.31,457.65 121.70,457.14 126.67,457.89 132.20,457.92 138.32,457.31 145.19,458.71 152.64,457.60 161.04,331.52 170.40,330.69 180.90,331.70 192.55,331.23 205.35,332.74 219.86,331.72 235.71,332.09 253.47,331.21 273.33,256.93 295.30,256.89 319.74,256.60 347.05,256.43 377.41,256.67 411.02,201.51 448.65,201.77 490.28,196.11 536.68,159.71 588.44,160.11 645.92,124.43 709.70,94.86 780.94,94.97 860.00,70.00"/>
<polyline class="fit" points="90.00,493.43 93.87,486.01 97.74,478.87 101.61,471.98 105.48,465.32 109.35,458.89 113.22,452.66 117.09,446.62 120.95,440.77 124.82,435.08 128.69,429.56 132.56,424.19 136.43,418.97 140.30,413.88 144.17,408.92 148.04,404.09 151.91,399.37 155.78,394.77 159.65,390.27 163.52,385.87 167.39,381.57 171.26,377.37 175.13,373.25 178.99,369.22 182.86,365.27 186.73,361.39 190.60,357.60 194.47,353.87 198.34,350.22 202.21,346.64 206.08,343.11 209.95,339.66 213.82,336.26 217.69,332.92 221.56,329.64 225.43,326.41 229.30,323.23 233.17,320.11 237.04,317.03 240.90,314.00 244.77,311.02 248.64,308.09 252.51,305.20 256.38,302.35 260.25,299.54 264.12,296.77 267.99,294.04 271.86,291.35 275.73,288.69 279.60,286.07 283.47,283.49 287.34,280.94 291.21,278.42 295.08,275.93 298.94,273.48 302.81,271.06 306.68,268.66 310.55,266.30 314.42,263.96 318.29,261.66 322.16,259.37 326.03,257.12 329.90,254.89 333.77,252.69 337.64,250.51 341.51,248.35 345.38,246.22 349.25,244.11 353.12,242.03 356.98,239.97 360.85,237.92 364.72,235.90 368.59,233.90 372.46,231.92 376.33,229.97 380.20,228.03 384.07,226.11 387.94,224.20 391.81,222.32 395.68,220.46 399.55,218.61 403.42,216.78 407.29,214.96 411.16,213.17 415.03,211.39 418.89,209.62 422.76,207.88 426.63,206.14 430.50,204.43 434.37,202.73 438.24,201.04 442.11,199.37 445.98,197.71 449.85,196.06 453.72,194.43 457.59,192.82 461.46,191.21 465.33,189.62 469.20,188.04 473.07,186.48 476.93,184.93 480.80,183.39 484.67,181.86 488.54,180.34 492.41,178.84 496.28,177.35 500.15,175.86 504.02,174.39 507.89,172.93 511.76,171.49 515.63,170.05 519.50,168.62 523.37,167.21 527.24,165.80 531.11,164.40 534.97,163.02 538.84,161.64 542.71,160.27 546.58,158.92 550.45,157.57 554.32,156.23 558.19,154.90 562.06,153.58 565.93,152.27 569.80,150.97 573.67,149.67 577.54,148.39 581.41,147.11 585.28,145.84 589.15,144.58 593.02,143.33 596.88,142.08 600.75,140.85 604.62,139.62 608.49,138.40 612.36,137.18 616.23,135.98 620.10,134.78 623.97,133.59 627.84,132.41 631.71,131.23 635.58,130.06 639.45,128.90 643.32,127.74 647.19,126.59 651.06,125.45 654.92,124.32 658.79,123.19 662.66,122.06 666.53,120.95 670.40,119.84 674.27,118.74 678.14,117.64 682.01,116.55 685.88,115.46 689.75,114.39 693.62,113.31 697.49,112.25 701.36,111.19 705.23,110.13 709.10,109.08 712.96,108.04 716.83,107.00 720.70,105.97 724.57,104.94 728.44,103.92 732.31,102.90 736.18,101.89 740.05,100.88 743.92,99.88 747.79,98.89 751.66,97.90 755.53,96.91 759.40,95.93 763.27,94.95 767.14,93.98 771.01,93.02 774.87,92.06 778.74,91.10 782.61,90.15 786.48,89.20 790.35,88.26 794.22,87.32 798.09,86.39 801.96,85.46 805.83,84.53 809.70,83.61 813.57,82.70 817.44,81.78 821.31,80.88 825.18,79.97 829.05,79.08 832.91,78.18 836.78,77.29 840.65,76.40 844.52,75.52 848.39,74.64 852.26,73.77 856.13,72.90 860.00,72.03"/>
<text x="450.0" y="520" text-anchor="middle" font-size="16">Input vertices (n)</text>
<text x="25" y="270.0" text-anchor="middle" transform="rotate(-90,25,270.0)" font-size="16">Time (seconds)</text>
<rect x="560" y="76" width="292" height="42" fill="white" opacity="0.75"/>
<text x="850" y="92" text-anchor="end" font-size="14" fill="#d62728">Best fit: c*n</text>
<text x="850" y="110" text-anchor="end" font-size="13" fill="#d62728">y=3.709e-06*f(n)+1.694e-03</text>
<line class="axis" x1="90.00" y1="460" x2="90.00" y2="466"/>
<text x="90.00" y="484" text-anchor="middle" font-size="12">64</text>
<line class="axis" x1="244.00" y1="460" x2="244.00" y2="466"/>
<text x="244.00" y="484" text-anchor="middle" font-size="12">870</text>
<line class="axis" x1="398.00" y1="460" x2="398.00" y2="466"/>
<text x="398.00" y="484" text-anchor="middle" font-size="12">1677</text>
<line class="axis" x1="552.00" y1="460" x2="552.00" y2="466"/>
<text x="552.00" y="484" text-anchor="middle" font-size="12">2483</text>
<line class="axis" x1="706.00" y1="460" x2="706.00" y2="466"/>
<text x="706.00" y="484" text-anchor="middle" font-size="12">3290</text>
<line class="axis" x1="860.00" y1="460" x2="860.00" y2="466"/>
<text x="860.00" y="484" text-anchor="middle" font-size="12">4096</text>
<line class="axis" x1="84" y1="460.00" x2="90" y2="460.00"/>
<text x="80" y="464.00" text-anchor="end" font-size="12">2.29e-03</text>
<line class="axis" x1="84" y1="382.00" x2="90" y2="382.00"/>
<text x="80" y="386.00" text-anchor="end" font-size="12">3.43e-03</text>
<line class="axis" x1="84" y1="304.00" x2="90" y2="304.00"/>
<text x="80" y="308.00" text-anchor="end" font-size="12">5.12e-03</text>
<line class="axis" x1="84" y1="226.00" x2="90" y2="226.00"/>
<text x="80" y="230.00" text-anchor="end" font-size="12">7.65e-03</text>
<line class="axis" x1="84" y1="148.00" x2="90" y2="148.00"/>
<text x="80" y="152.00" text-anchor="end" font-size="12">1.14e-02</text>
<line class="axis" x1="84" y1="70.00" x2="90" y2="70.00"/>
<text x="80" y="74.00" text-anchor="end" font-size="12">1.71e-02</text>
</svg>